<svg width="29" height="40" viewBox="0 0 29 40" fill="none" xmlns="http://www.w3.org/2000/svg">
<path d="M14.5 2C7.59896 2 2 7.31286 2 13.8564C2 21.3856 10.3333 33.3172 13.3932 37.4384C13.5202 37.6124 13.6867 37.7539 13.8791 37.8515C14.0714 37.9491 14.2842 38 14.5 38C14.7158 38 14.9286 37.9491 15.1209 37.8515C15.3133 37.7539 15.4798 37.6124 15.6068 37.4384C18.6667 33.319 27 21.3916 27 13.8564C27 7.31286 21.401 2 14.5 2Z" stroke="#595D72" stroke-width="3" stroke-linecap="round" stroke-linejoin="round"/>
<path d="M14.5 18C16.433 18 18 16.433 18 14.5C18 12.567 16.433 11 14.5 11C12.567 11 11 12.567 11 14.5C11 16.433 12.567 18 14.5 18Z" stroke="#595D72" stroke-width="3" stroke-linecap="round" stroke-linejoin="round"/>
</svg>
