<svg width="63" height="55" viewBox="0 0 63 55" fill="none" xmlns="http://www.w3.org/2000/svg">
<path d="M52.4748 43.3179C40.2963 51.4629 23.3096 51.3977 11.2145 43.1596L20.0794 39.5501C20.5016 39.3777 20.9068 39.1755 21.2909 38.9456C21.4075 38.876 21.5241 38.8032 21.6352 38.7272C22.6 38.086 23.3942 37.2715 23.9635 36.3393C24.3939 35.6231 24.6798 34.8481 24.8088 34.048C24.8978 33.5288 24.9428 33.0046 24.9436 32.4798C24.9436 31.5746 24.8871 30.6694 24.8762 29.7627C24.8689 29.2606 24.8628 28.7589 24.858 28.2578L25.2223 28.4161L26.1697 28.8417L26.6087 28.9066L31.6879 29.6567L37.3574 30.4954L37.5286 35.5592L37.5851 37.2144L37.6124 38.0183V38.0705L39.8168 38.8491L52.4748 43.3179Z" fill="#DE8276"/>
<path d="M37.576 37.7557C36.9499 37.8493 36.3057 37.7626 35.7415 37.5088L24.8707 29.7897C24.858 29.4321 24.847 29.8071 24.8416 29.4495C24.8343 28.9473 24.8282 28.4457 24.8234 27.9446L25.1877 28.1028L26.1351 28.5285L26.5741 28.5934L31.6533 29.3435L37.3228 30.1821L37.494 35.246L37.5505 36.9012L37.5778 37.7051V37.7573L37.576 37.7557Z" fill="#A76962"/>
<path d="M43.1872 23.9964C42.9039 24.2537 42.5935 24.4873 42.2599 24.6942C40.3652 25.8858 37.8365 26.2767 35.6759 26.9191C34.765 27.1897 24.8871 29.6283 24.8871 30.1584C24.8871 30.0429 23.9197 29.2089 22.701 28.1962C18.4973 24.699 17.0958 19.363 19.1375 14.6283C21.1251 10.0915 27.4613 6.96457 32.7683 6.24139C35.2951 5.89801 38.2938 5.70653 40.6275 6.75885C41.8208 7.29846 42.8137 8.08494 43.7246 8.95686C44.0088 9.2322 44.2845 9.51335 44.5517 9.8003C44.6665 9.92056 44.7794 10.0408 44.8906 10.1627C49.0388 14.6885 47.5686 19.9975 43.1872 23.9964Z" fill="url(#paint0_linear_491_6093)"/>
<path d="M43.1872 23.9964C42.9039 24.2537 42.5935 24.4873 42.2599 24.6942C42.1821 24.5765 42.1121 24.455 42.0504 24.3302C41.5694 23.3808 41.3216 22.3506 41.1395 21.3236C40.8558 19.829 40.6618 18.3226 40.5583 16.8105C40.3925 14.383 39.1992 13.1788 41.5731 11.2862C42.4273 10.6062 43.4447 10.0992 44.5517 9.80188C44.6665 9.92215 44.7794 10.0424 44.8906 10.1643C49.0388 14.6885 47.5686 19.9975 43.1872 23.9964Z" fill="url(#paint1_linear_491_6093)"/>
<ellipse cx="23.0653" cy="23.8302" rx="3.09707" ry="2.69015" fill="#E18477"/>
<ellipse cx="24.0491" cy="23.8302" rx="2.77279" ry="2.40847" fill="#A76962"/>
<path d="M24.2805 21.2793C24.4317 22.9978 24.4262 25.0961 24.479 25.7101C24.6163 27.2493 24.7523 28.788 24.8871 30.3261L36.9912 36.4676C38.7285 37.0316 40.6747 36.3569 41.4874 34.9088C43.2291 31.8104 46.0237 26.9175 45.6557 25.0977C45.1092 22.4076 43.6518 21.4581 43.6518 21.4581L44.2584 18.3027C44.8724 15.0951 43.6062 12.0584 39.2922 11.7071C38.3813 11.6343 37.3665 11.7847 36.8254 12.4161C35.368 14.1188 36.2078 16.2139 34.0199 17.7964C31.3637 19.7 25.4373 20.5308 24.0491 18.9943C24.0491 18.9943 24.1766 20.0814 24.2805 21.2793Z" fill="#DE8276"/>
<path d="M33.364 27.9921C34.2393 28.8412 35.4393 29.3859 36.7416 29.5254" stroke="#00214E"/>
<path d="M37.6671 20.5214C37.6525 20.5767 40.101 26.2387 40.101 26.2387L36.8327 26.3764" stroke="#00214E"/>
<path d="M29.9281 19.4231C31.6145 19.1201 33.3492 19.0773 35.0528 19.2965" stroke="#00214E"/>
<path d="M40.6859 19.4437C41.727 19.233 42.8002 19.1684 43.8649 19.2523" stroke="#00214E"/>
<path d="M52.4748 43.3179C40.2963 51.4629 23.3096 51.3978 11.2145 43.1597L20.0794 39.5501C20.5016 39.3777 20.9068 39.1755 21.2909 38.9456C21.4075 38.876 21.5241 38.8032 21.6352 38.7272C22.6 38.086 23.3942 37.2715 23.9635 36.3393C24.3939 35.6231 24.6798 34.8481 24.8088 34.048C24.9375 34.1563 25.0724 34.2587 25.2132 34.355C26.3303 35.0725 27.5426 35.6707 28.8241 36.1368C29.4462 36.3622 30.0824 36.5572 30.7297 36.7207C32.6797 37.2146 34.7158 37.4017 36.7416 37.273C37.0222 37.254 37.3046 37.2303 37.5851 37.2129L37.6124 38.0167V38.069L39.8168 38.8475L52.4748 43.3179Z" fill="#00214E"/>
<path d="M32.4112 21.2018C33.5225 21.2018 33.5225 22.6861 32.4112 22.694H32.3602C31.2471 22.694 31.2471 21.2097 32.3602 21.2018H32.4094H32.4112Z" fill="#00214E"/>
<path d="M41.5439 20.9818C42.5751 20.9897 42.5751 22.3585 41.5439 22.3664H41.4965C40.4654 22.3664 40.4654 20.9897 41.4965 20.9818H41.5439Z" fill="#00214E"/>
<defs>
<linearGradient id="paint0_linear_491_6093" x1="18.2011" y1="30.1645" x2="47.3464" y2="30.1645" gradientUnits="userSpaceOnUse">
<stop stop-color="#16243F"/>
<stop offset="1" stop-color="#6878B1"/>
</linearGradient>
<linearGradient id="paint1_linear_491_6093" x1="35.3662" y1="19.5917" x2="47.2971" y2="23.4886" gradientUnits="userSpaceOnUse">
<stop stop-color="#16243F"/>
<stop offset="1" stop-color="#6878B1"/>
</linearGradient>
</defs>
</svg>
